STARTFONT 2.1
COMMENT Copyright (C) 1990-1991 EWT Consulting
COMMENT Portions Copyright (C) 1994-1995 Cronyx Ltd.
COMMENT Changes Copyright (C) 1996 by Andrey A. Chernov, Moscow, Russia.
COMMENT Modified by Serge Vakulenko, <vak@cronyx.ru>
COMMENT This software may be used, modified, copied, distributed, and sold,
COMMENT in both source and binary form provided that the copyright
COMMENT and these terms are retained. Under no circumstances is the author
COMMENT responsible for the proper functioning of this software, nor does
COMMENT the author assume any responsibility for damages incurred with its use.
COMMENT $XFree86: xc/fonts/bdf/cyrillic/crox1co.bdf,v 3.2 1996/09/01 12:17:44 dawes Exp $
FONT -Cronyx-Courier-Medium-O-Normal--14-100-100-100-M-80-KOI8-R
SIZE 10 96 96
FONTBOUNDINGBOX 12 13 -1 -2
STARTPROPERTIES 19
DEFAULT_CHAR 32
FONT_ASCENT 11
FONT_DESCENT 2
SPACING "M"
FONTNAME_REGISTRY ""
FOUNDRY "Cronyx"
FAMILY_NAME "Courier"
WEIGHT_NAME "Medium"
SLANT "O"
SETWIDTH_NAME "Normal"
ADD_STYLE_NAME ""
AVERAGE_WIDTH 80
CHARSET_REGISTRY "KOI8"
CHARSET_ENCODING "R"
PIXEL_SIZE 14
POINT_SIZE 100
RESOLUTION_X 100
RESOLUTION_Y 100
COPYRIGHT "Copyright (C) 1990, 1991 EWT Consulting, Portions Copyright (C) 1994 Cronyx Ltd., Portions Copyright (C) 1996 by Andrey A. Chernov, Moscow, Russia."
ENDPROPERTIES
CHARS 224
STARTCHAR space
ENCODING 32
SWIDTH 615 0
DWIDTH 8 0
BBX 12 13 -1 -2
BITMAP
0000
0000
0000
0000
0000
0000
0000
0000
0000
0000
0000
0000
0000
ENDCHAR
STARTCHAR exclam
ENCODING 33
SWIDTH 615 0
DWIDTH 8 0
BBX 12 13 -1 -2
BITMAP
0000
0000
0080
0080
0100
0100
0100
0200
0200
0000
0400
0000
0000
ENDCHAR
STARTCHAR quotedbl
ENCODING 34
SWIDTH 615 0
DWIDTH 8 0
BBX 12 13 -1 -2
BITMAP
0000
0000
0140
0140
0280
0000
0000
0000
0000
0000
0000
0000
0000
ENDCHAR
STARTCHAR numbersign
ENCODING 35
SWIDTH 615 0
DWIDTH 8 0
BBX 12 13 -1 -2
BITMAP
0000
0000
00A0
00A0
07E0
0280
0280
0500
1F80
0A00
1400
0000
0000
ENDCHAR
STARTCHAR dollar
ENCODING 36
SWIDTH 615 0
DWIDTH 8 0
BBX 12 13 -1 -2
BITMAP
0000
0000
0080
01C0
0440
0400
0380
0080
0880
0700
0400
0000
0000
ENDCHAR
STARTCHAR percent
ENCODING 37
SWIDTH 615 0
DWIDTH 8 0
BBX 12 13 -1 -2
BITMAP
0000
0000
0200
0510
0440
0080
0100
0400
0880
1140
0100
0000
0000
ENDCHAR
STARTCHAR ampersand
ENCODING 38
SWIDTH 615 0
DWIDTH 8 0
BBX 12 13 -1 -2
BITMAP
0000
0000
0180
0200
0400
0200
0600
1240
1280
1100
1D80
0000
0000
ENDCHAR
STARTCHAR quoteright
ENCODING 39
SWIDTH 615 0
DWIDTH 8 0
BBX 12 13 -1 -2
BITMAP
0000
0000
0080
0080
0100
0000
0000
0000
0000
0000
0000
0000
0000
ENDCHAR
STARTCHAR parenleft
ENCODING 40
SWIDTH 615 0
DWIDTH 8 0
BBX 12 13 -1 -2
BITMAP
0000
0000
0040
0080
0100
0200
0200
0400
0400
0400
0400
0400
0200
ENDCHAR
STARTCHAR parenright
ENCODING 41
SWIDTH 615 0
DWIDTH 8 0
BBX 12 13 -1 -2
BITMAP
0000
0000
0100
0080
0100
0080
0080
0100
0100
0100
0400
0400
0800
ENDCHAR
STARTCHAR asterisk
ENCODING 42
SWIDTH 615 0
DWIDTH 8 0
BBX 12 13 -1 -2
BITMAP
0000
0000
0000
0000
06C0
0380
0FE0
0700
0D80
0000
0000
0000
0000
ENDCHAR
STARTCHAR plus
ENCODING 43
SWIDTH 615 0
DWIDTH 8 0
BBX 12 13 -1 -2
BITMAP
0000
0000
0000
0000
0100
0100
0100
1FC0
0200
0200
0400
0000
0000
ENDCHAR
STARTCHAR comma
ENCODING 44
SWIDTH 615 0
DWIDTH 8 0
BBX 12 13 -1 -2
BITMAP
0000
0000
0000
0000
0000
0000
0000
0000
0000
0000
0400
0800
0000
ENDCHAR
STARTCHAR minus
ENCODING 45
SWIDTH 615 0
DWIDTH 8 0
BBX 12 13 -1 -2
BITMAP
0000
0000
0000
0000
0000
0000
0000
1FC0
0000
0000
0000
0000
0000
ENDCHAR
STARTCHAR period
ENCODING 46
SWIDTH 615 0
DWIDTH 8 0
BBX 12 13 -1 -2
BITMAP
0000
0000
0000
0000
0000
0000
0000
0000
0000
0000
0400
0000
0000
ENDCHAR
STARTCHAR slash
ENCODING 47
SWIDTH 615 0
DWIDTH 8 0
BBX 12 13 -1 -2
BITMAP
0000
0000
0000
0010
0040
0080
0100
0400
0800
1000
0000
0000
0000
ENDCHAR
STARTCHAR zero
ENCODING 48
SWIDTH 615 0
DWIDTH 8 0
BBX 12 13 -1 -2
BITMAP
0000
0000
01C0
0220
0440
0440
0440
0880
0880
0880
0E00
0000
0000
ENDCHAR
STARTCHAR one
ENCODING 49
SWIDTH 615 0
DWIDTH 8 0
BBX 12 13 -1 -2
BITMAP
0000
0000
0080
0380
0100
0100
0100
0200
0200
0200
1F00
0000
0000
ENDCHAR
STARTCHAR two
ENCODING 50
SWIDTH 615 0
DWIDTH 8 0
BBX 12 13 -1 -2
BITMAP
0000
0000
01C0
0220
0040
0040
0080
0200
0400
0800
1F00
0000
0000
ENDCHAR
STARTCHAR three
ENCODING 51
SWIDTH 615 0
DWIDTH 8 0
BBX 12 13 -1 -2
BITMAP
0000
0000
01C0
0220
0040
0040
0180
0080
0080
0880
0E00
0000
0000
ENDCHAR
STARTCHAR four
ENCODING 52
SWIDTH 615 0
DWIDTH 8 0
BBX 12 13 -1 -2
BITMAP
0000
0000
0040
00C0
0180
0280
0280
0900
0F80
0100
0700
0000
0000
ENDCHAR
STARTCHAR five
ENCODING 53
SWIDTH 615 0
DWIDTH 8 0
BBX 12 13 -1 -2
BITMAP
0000
0000
03E0
0200
0400
0400
0780
0080
0080
0880
0E00
0000
0000
ENDCHAR
STARTCHAR six
ENCODING 54
SWIDTH 615 0
DWIDTH 8 0
BBX 12 13 -1 -2
BITMAP
0000
0000
00C0
0100
0400
0400
0780
0880
0880
0880
0E00
0000
0000
ENDCHAR
STARTCHAR seven
ENCODING 55
SWIDTH 615 0
DWIDTH 8 0
BBX 12 13 -1 -2
BITMAP
0000
0000
03E0
0220
0040
0080
0080
0200
0200
0400
0800
0000
0000
ENDCHAR
STARTCHAR eight
ENCODING 56
SWIDTH 615 0
DWIDTH 8 0
BBX 12 13 -1 -2
BITMAP
0000
0000
01C0
0220
0440
0440
0380
0880
0880
0880
0E00
0000
0000
ENDCHAR
STARTCHAR nine
ENCODING 57
SWIDTH 615 0
DWIDTH 8 0
BBX 12 13 -1 -2
BITMAP
0000
0000
01C0
0220
0440
0440
03C0
0080
0080
0100
0C00
0000
0000
ENDCHAR
STARTCHAR colon
ENCODING 58
SWIDTH 615 0
DWIDTH 8 0
BBX 12 13 -1 -2
BITMAP
0000
0000
0000
0000
0000
0100
0000
0000
0000
0000
0400
0000
0000
ENDCHAR
STARTCHAR semicolon
ENCODING 59
SWIDTH 615 0
DWIDTH 8 0
BBX 12 13 -1 -2
BITMAP
0000
0000
0000
0000
0000
0100
0000
0000
0000
0000
0400
0800
0000
ENDCHAR
STARTCHAR less
ENCODING 60
SWIDTH 615 0
DWIDTH 8 0
BBX 12 13 -1 -2
BITMAP
0000
0000
0000
0000
0080
0100
0200
0800
0400
0200
0200
0000
0000
ENDCHAR
STARTCHAR equal
ENCODING 61
SWIDTH 615 0
DWIDTH 8 0
BBX 12 13 -1 -2
BITMAP
0000
0000
0000
0000
0000
07C0
0000
0F80
0000
0000
0000
0000
0000
ENDCHAR
STARTCHAR greater
ENCODING 62
SWIDTH 615 0
DWIDTH 8 0
BBX 12 13 -1 -2
BITMAP
0000
0000
0000
0000
0200
0100
0080
0080
0100
0200
0800
0000
0000
ENDCHAR
STARTCHAR question
ENCODING 63
SWIDTH 615 0
DWIDTH 8 0
BBX 12 13 -1 -2
BITMAP
0000
0000
01C0
0220
0040
0040
0080
0200
0200
0000
0400
0000
0000
ENDCHAR
STARTCHAR at
ENCODING 64
SWIDTH 615 0
DWIDTH 8 0
BBX 12 13 -1 -2
BITMAP
0000
0000
01E0
0210
09A0
0AA0
0AA0
1540
1380
0800
0E00
0000
0000
ENDCHAR
STARTCHAR A
ENCODING 65
SWIDTH 615 0
DWIDTH 8 0
BBX 12 13 -1 -2
BITMAP
0000
0000
0180
0080
0100
0280
0280
0880
0F80
0880
3B80
0000
0000
ENDCHAR
STARTCHAR B
ENCODING 66
SWIDTH 615 0
DWIDTH 8 0
BBX 12 13 -1 -2
BITMAP
0000
0000
07E0
0210
0420
0420
07C0
0840
0840
0840
3F00
0000
0000
ENDCHAR
STARTCHAR C
ENCODING 67
SWIDTH 615 0
DWIDTH 8 0
BBX 12 13 -1 -2
BITMAP
0000
0000
01E0
0210
0800
0800
0800
1000
1000
0840
0F00
0000
0000
ENDCHAR
STARTCHAR D
ENCODING 68
SWIDTH 615 0
DWIDTH 8 0
BBX 12 13 -1 -2
BITMAP
0000
0000
07C0
0220
0420
0420
0420
0840
0840
0880
3E00
0000
0000
ENDCHAR
STARTCHAR E
ENCODING 69
SWIDTH 615 0
DWIDTH 8 0
BBX 12 13 -1 -2
BITMAP
0000
0000
07F0
0210
0400
0480
0780
0900
0800
0840
3F80
0000
0000
ENDCHAR
STARTCHAR F
ENCODING 70
SWIDTH 615 0
DWIDTH 8 0
BBX 12 13 -1 -2
BITMAP
0000
0000
07F0
0210
0400
0480
0780
0900
0800
0800
3C00
0000
0000
ENDCHAR
STARTCHAR G
ENCODING 71
SWIDTH 615 0
DWIDTH 8 0
BBX 12 13 -1 -2
BITMAP
0000
0000
01E0
0210
0800
0800
0800
11C0
1040
0840
0F00
0000
0000
ENDCHAR
STARTCHAR H
ENCODING 72
SWIDTH 615 0
DWIDTH 8 0
BBX 12 13 -1 -2
BITMAP
0000
0000
0770
0220
0440
0440
07C0
0880
0880
0880
3B80
0000
0000
ENDCHAR
STARTCHAR I
ENCODING 73
SWIDTH 615 0
DWIDTH 8 0
BBX 12 13 -1 -2
BITMAP
0000
0000
03E0
0080
0100
0100
0100
0200
0200
0200
1F00
0000
0000
ENDCHAR
STARTCHAR J
ENCODING 74
SWIDTH 615 0
DWIDTH 8 0
BBX 12 13 -1 -2
BITMAP
0000
0000
01E0
0040
0080
0080
0080
0100
1100
1100
1C00
0000
0000
ENDCHAR
STARTCHAR K
ENCODING 75
SWIDTH 615 0
DWIDTH 8 0
BBX 12 13 -1 -2
BITMAP
0000
0000
0730
0220
0480
0480
0500
0E00
0900
0880
3980
0000
0000
ENDCHAR
STARTCHAR L
ENCODING 76
SWIDTH 615 0
DWIDTH 8 0
BBX 12 13 -1 -2
BITMAP
0000
0000
07C0
0100
0200
0200
0200
0400
0400
0440
3F80
0000
0000
ENDCHAR
STARTCHAR M
ENCODING 77
SWIDTH 615 0
DWIDTH 8 0
BBX 12 13 -1 -2
BITMAP
0000
0000
0630
0220
06C0
06C0
0540
0A80
0880
0880
3B80
0000
0000
ENDCHAR
STARTCHAR N
ENCODING 78
SWIDTH 615 0
DWIDTH 8 0
BBX 12 13 -1 -2
BITMAP
0000
0000
0670
0220
0640
0640
0540
0980
0980
0880
3900
0000
0000
ENDCHAR
STARTCHAR O
ENCODING 79
SWIDTH 615 0
DWIDTH 8 0
BBX 12 13 -1 -2
BITMAP
0000
0000
01C0
0220
0820
0820
0820
1040
1040
0880
0E00
0000
0000
ENDCHAR
STARTCHAR P
ENCODING 80
SWIDTH 615 0
DWIDTH 8 0
BBX 12 13 -1 -2
BITMAP
0000
0000
07E0
0210
0420
0420
07C0
0800
0800
0800
3C00
0000
0000
ENDCHAR
STARTCHAR Q
ENCODING 81
SWIDTH 615 0
DWIDTH 8 0
BBX 12 13 -1 -2
BITMAP
0000
0000
01C0
0220
0820
0820
0820
1040
1040
0880
0E00
0D80
0000
ENDCHAR
STARTCHAR R
ENCODING 82
SWIDTH 615 0
DWIDTH 8 0
BBX 12 13 -1 -2
BITMAP
0000
0000
07E0
0210
0420
0420
07C0
0900
0900
0880
3980
0000
0000
ENDCHAR
STARTCHAR S
ENCODING 83
SWIDTH 615 0
DWIDTH 8 0
BBX 12 13 -1 -2
BITMAP
0000
0000
03E0
0410
0800
0800
07C0
0040
0040
1040
1F00
0000
0000
ENDCHAR
STARTCHAR T
ENCODING 84
SWIDTH 615 0
DWIDTH 8 0
BBX 12 13 -1 -2
BITMAP
0000
0000
07F0
0490
0100
0100
0100
0200
0200
0200
0E00
0000
0000
ENDCHAR
STARTCHAR U
ENCODING 85
SWIDTH 615 0
DWIDTH 8 0
BBX 12 13 -1 -2
BITMAP
0000
0000
0770
0220
0440
0440
0440
0880
0880
0880
0E00
0000
0000
ENDCHAR
STARTCHAR V
ENCODING 86
SWIDTH 615 0
DWIDTH 8 0
BBX 12 13 -1 -2
BITMAP
0000
0000
0770
0220
0440
0440
0280
0500
0500
0200
0400
0000
0000
ENDCHAR
STARTCHAR W
ENCODING 87
SWIDTH 615 0
DWIDTH 8 0
BBX 12 13 -1 -2
BITMAP
0000
0000
0770
0220
0440
0440
0540
0A80
0A80
0500
0A00
0000
0000
ENDCHAR
STARTCHAR X
ENCODING 88
SWIDTH 615 0
DWIDTH 8 0
BBX 12 13 -1 -2
BITMAP
0000
0000
0770
0220
0280
0280
0100
0500
0500
0880
3B80
0000
0000
ENDCHAR
STARTCHAR Y
ENCODING 89
SWIDTH 615 0
DWIDTH 8 0
BBX 12 13 -1 -2
BITMAP
0000
0000
0770
0220
0440
0280
0280
0200
0200
0200
0E00
0000
0000
ENDCHAR
STARTCHAR Z
ENCODING 90
SWIDTH 615 0
DWIDTH 8 0
BBX 12 13 -1 -2
BITMAP
0000
0000
07F0
0420
0080
0080
0100
0400
0400
0840
3F80
0000
0000
ENDCHAR
STARTCHAR bracketleft
ENCODING 91
SWIDTH 615 0
DWIDTH 8 0
BBX 12 13 -1 -2
BITMAP
0000
0000
01C0
0100
0200
0200
0200
0400
0400
0400
0800
0800
0E00
ENDCHAR
STARTCHAR backslash
ENCODING 92
SWIDTH 615 0
DWIDTH 8 0
BBX 12 13 -1 -2
BITMAP
0000
0000
0000
0400
0400
0200
0100
0100
0080
0040
0000
0000
0000
ENDCHAR
STARTCHAR bracketright
ENCODING 93
SWIDTH 615 0
DWIDTH 8 0
BBX 12 13 -1 -2
BITMAP
0000
0000
0000
01C0
0080
0080
0080
0100
0100
0100
0200
0200
0E00
ENDCHAR
STARTCHAR asciicircum
ENCODING 94
SWIDTH 615 0
DWIDTH 8 0
BBX 12 13 -1 -2
BITMAP
0000
0080
0140
0220
0000
0000
0000
0000
0000
0000
0000
0000
0000
ENDCHAR
STARTCHAR underscore
ENCODING 95
SWIDTH 615 0
DWIDTH 8 0
BBX 12 13 -1 -2
BITMAP
0000
0000
0000
0000
0000
0000
0000
0000
0000
0000
0000
0000
7F80
ENDCHAR
STARTCHAR quoteleft
ENCODING 96
SWIDTH 615 0
DWIDTH 8 0
BBX 12 13 -1 -2
BITMAP
0000
0000
0100
0080
0000
0000
0000
0000
0000
0000
0000
0000
0000
ENDCHAR
STARTCHAR a
ENCODING 97
SWIDTH 615 0
DWIDTH 8 0
BBX 12 13 -1 -2
BITMAP
0000
0000
0000
0000
0000
0780
0040
0F80
1080
1080
1E80
0000
0000
ENDCHAR
STARTCHAR b
ENCODING 98
SWIDTH 615 0
DWIDTH 8 0
BBX 12 13 -1 -2
BITMAP
0000
0000
0600
0200
0400
07C0
0420
0840
0840
0840
3F00
0000
0000
ENDCHAR
STARTCHAR c
ENCODING 99
SWIDTH 615 0
DWIDTH 8 0
BBX 12 13 -1 -2
BITMAP
0000
0000
0000
0000
0000
07C0
0820
1000
1000
1040
1F00
0000
0000
ENDCHAR
STARTCHAR d
ENCODING 100
SWIDTH 615 0
DWIDTH 8 0
BBX 12 13 -1 -2
BITMAP
0000
0000
0060
0020
0040
07C0
0840
1080
1080
1080
1F80
0000
0000
ENDCHAR
STARTCHAR e
ENCODING 101
SWIDTH 615 0
DWIDTH 8 0
BBX 12 13 -1 -2
BITMAP
0000
0000
0000
0000
0000
07C0
0820
1FC0
1000
1040
1F00
0000
0000
ENDCHAR
STARTCHAR f
ENCODING 102
SWIDTH 615 0
DWIDTH 8 0
BBX 12 13 -1 -2
BITMAP
0000
0000
00C0
0100
0200
0780
0200
0400
0400
0400
1E00
0000
0000
ENDCHAR
STARTCHAR g
ENCODING 103
SWIDTH 615 0
DWIDTH 8 0
BBX 12 13 -1 -2
BITMAP
0000
0000
0000
0000
0000
07E0
0840
1080
1080
0F80
0100
0100
1E00
ENDCHAR
STARTCHAR h
ENCODING 104
SWIDTH 615 0
DWIDTH 8 0
BBX 12 13 -1 -2
BITMAP
0000
0000
0600
0200
0400
0580
0640
0880
0880
0880
3B80
0000
0000
ENDCHAR
STARTCHAR i
ENCODING 105
SWIDTH 615 0
DWIDTH 8 0
BBX 12 13 -1 -2
BITMAP
0000
0000
0080
0000
0000
0700
0100
0200
0200
0200
1F00
0000
0000
ENDCHAR
STARTCHAR j
ENCODING 106
SWIDTH 615 0
DWIDTH 8 0
BBX 12 13 -1 -2
BITMAP
0000
0000
0040
0000
0000
0780
0080
0100
0100
0100
0200
0200
1C00
ENDCHAR
STARTCHAR k
ENCODING 107
SWIDTH 615 0
DWIDTH 8 0
BBX 12 13 -1 -2
BITMAP
0000
0000
0600
0200
0400
04C0
0480
0A00
0E00
0900
3180
0000
0000
ENDCHAR
STARTCHAR l
ENCODING 108
SWIDTH 615 0
DWIDTH 8 0
BBX 12 13 -1 -2
BITMAP
0000
0000
0180
0080
0100
0100
0100
0200
0200
0200
1F00
0000
0000
ENDCHAR
STARTCHAR m
ENCODING 109
SWIDTH 615 0
DWIDTH 8 0
BBX 12 13 -1 -2
BITMAP
0000
0000
0000
0000
0000
0E80
0540
0A80
0A80
0A80
3580
0000
0000
ENDCHAR
STARTCHAR n
ENCODING 110
SWIDTH 615 0
DWIDTH 8 0
BBX 12 13 -1 -2
BITMAP
0000
0000
0000
0000
0000
0D80
0640
0880
0880
0880
3B80
0000
0000
ENDCHAR
STARTCHAR o
ENCODING 111
SWIDTH 615 0
DWIDTH 8 0
BBX 12 13 -1 -2
BITMAP
0000
0000
0000
0000
0000
07C0
0820
1040
1040
1040
1F00
0000
0000
ENDCHAR
STARTCHAR p
ENCODING 112
SWIDTH 615 0
DWIDTH 8 0
BBX 12 13 -1 -2
BITMAP
0000
0000
0000
0000
0000
0FC0
0420
0840
0840
0840
1F00
1000
3800
ENDCHAR
STARTCHAR q
ENCODING 113
SWIDTH 615 0
DWIDTH 8 0
BBX 12 13 -1 -2
BITMAP
0000
0000
0000
0000
0000
07E0
0840
1080
1080
1080
1F00
0100
0380
ENDCHAR
STARTCHAR r
ENCODING 114
SWIDTH 615 0
DWIDTH 8 0
BBX 12 13 -1 -2
BITMAP
0000
0000
0000
0000
0000
0EC0
0320
0400
0400
0400
3E00
0000
0000
ENDCHAR
STARTCHAR s
ENCODING 115
SWIDTH 615 0
DWIDTH 8 0
BBX 12 13 -1 -2
BITMAP
0000
0000
0000
0000
0000
07C0
0820
0E00
0180
1040
1F00
0000
0000
ENDCHAR
STARTCHAR t
ENCODING 116
SWIDTH 615 0
DWIDTH 8 0
BBX 12 13 -1 -2
BITMAP
0000
0000
0000
0100
0200
0780
0200
0400
0400
0480
0600
0000
0000
ENDCHAR
STARTCHAR u
ENCODING 117
SWIDTH 615 0
DWIDTH 8 0
BBX 12 13 -1 -2
BITMAP
0000
0000
0000
0000
0000
0CC0
0440
0880
0880
0980
0D80
0000
0000
ENDCHAR
STARTCHAR v
ENCODING 118
SWIDTH 615 0
DWIDTH 8 0
BBX 12 13 -1 -2
BITMAP
0000
0000
0000
0000
0000
0EE0
0440
0880
0500
0500
0400
0000
0000
ENDCHAR
STARTCHAR w
ENCODING 119
SWIDTH 615 0
DWIDTH 8 0
BBX 12 13 -1 -2
BITMAP
0000
0000
0000
0000
0000
0EE0
0440
0A80
0A80
0500
0A00
0000
0000
ENDCHAR
STARTCHAR x
ENCODING 120
SWIDTH 615 0
DWIDTH 8 0
BBX 12 13 -1 -2
BITMAP
0000
0000
0000
0000
0000
0EE0
0440
0700
0700
0880
3B80
0000
0000
ENDCHAR
STARTCHAR y
ENCODING 121
SWIDTH 615 0
DWIDTH 8 0
BBX 12 13 -1 -2
BITMAP
0000
0000
0000
0000
0000
0EE0
0440
0880
0500
0500
0400
0400
1800
ENDCHAR
STARTCHAR z
ENCODING 122
SWIDTH 615 0
DWIDTH 8 0
BBX 12 13 -1 -2
BITMAP
0000
0000
0000
0000
0000
0FC0
0880
0200
0400
0880
3F00
0000
0000
ENDCHAR
STARTCHAR braceleft
ENCODING 123
SWIDTH 615 0
DWIDTH 8 0
BBX 12 13 -1 -2
BITMAP
0000
0000
0060
0080
0100
0100
0100
0C00
0200
0200
0400
0400
0300
ENDCHAR
STARTCHAR bar
ENCODING 124
SWIDTH 615 0
DWIDTH 8 0
BBX 12 13 -1 -2
BITMAP
0000
0080
0080
0080
0100
0100
0100
0200
0200
0200
0400
0400
0400
ENDCHAR
STARTCHAR braceright
ENCODING 125
SWIDTH 615 0
DWIDTH 8 0
BBX 12 13 -1 -2
BITMAP
0000
0000
0300
0080
0100
0100
0100
0180
0200
0200
0400
0400
1800
ENDCHAR
STARTCHAR asciitilde
ENCODING 126
SWIDTH 615 0
DWIDTH 8 0
BBX 12 13 -1 -2
BITMAP
0000
0000
0000
0310
0920
08C0
0000
0000
0000
0000
0000
0000
0000
ENDCHAR
STARTCHAR C177
ENCODING -1
SWIDTH 615 0
DWIDTH 8 0
BBX 12 13 -1 -2
BITMAP
0000
0000
0000
01C0
0380
0380
0380
0700
0700
0700
0E00
0E00
0000
ENDCHAR
STARTCHAR C200
ENCODING -1
SWIDTH 615 0
DWIDTH 8 0
BBX 12 13 -1 -2
BITMAP
0000
0000
0000
01C0
0380
0380
0380
0700
0700
0700
0E00
0E00
0000
ENDCHAR
STARTCHAR C201
ENCODING -1
SWIDTH 615 0
DWIDTH 8 0
BBX 12 13 -1 -2
BITMAP
0000
0000
0000
01C0
0380
0380
0380
0700
0700
0700
0E00
0E00
0000
ENDCHAR
STARTCHAR C202
ENCODING -1
SWIDTH 615 0
DWIDTH 8 0
BBX 12 13 -1 -2
BITMAP
0000
0000
0000
01C0
0380
0380
0380
0700
0700
0700
0E00
0E00
0000
ENDCHAR
STARTCHAR C203
ENCODING -1
SWIDTH 615 0
DWIDTH 8 0
BBX 12 13 -1 -2
BITMAP
0000
0000
0000
01C0
0380
0380
0380
0700
0700
0700
0E00
0E00
0000
ENDCHAR
STARTCHAR C204
ENCODING -1
SWIDTH 615 0
DWIDTH 8 0
BBX 12 13 -1 -2
BITMAP
0000
0000
0000
01C0
0380
0380
0380
0700
0700
0700
0E00
0E00
0000
ENDCHAR
STARTCHAR C205
ENCODING -1
SWIDTH 615 0
DWIDTH 8 0
BBX 12 13 -1 -2
BITMAP
0000
0000
0000
01C0
0380
0380
0380
0700
0700
0700
0E00
0E00
0000
ENDCHAR
STARTCHAR C206
ENCODING -1
SWIDTH 615 0
DWIDTH 8 0
BBX 12 13 -1 -2
BITMAP
0000
0000
0000
01C0
0380
0380
0380
0700
0700
0700
0E00
0E00
0000
ENDCHAR
STARTCHAR C207
ENCODING -1
SWIDTH 615 0
DWIDTH 8 0
BBX 12 13 -1 -2
BITMAP
0000
0000
0000
01C0
0380
0380
0380
0700
0700
0700
0E00
0E00
0000
ENDCHAR
STARTCHAR C210
ENCODING -1
SWIDTH 615 0
DWIDTH 8 0
BBX 12 13 -1 -2
BITMAP
0000
0000
0000
01C0
0380
0380
0380
0700
0700
0700
0E00
0E00
0000
ENDCHAR
STARTCHAR C211
ENCODING -1
SWIDTH 615 0
DWIDTH 8 0
BBX 12 13 -1 -2
BITMAP
0000
0000
0000
01C0
0380
0380
0380
0700
0700
0700
0E00
0E00
0000
ENDCHAR
STARTCHAR C212
ENCODING -1
SWIDTH 615 0
DWIDTH 8 0
BBX 12 13 -1 -2
BITMAP
0000
0000
0000
01C0
0380
0380
0380
0700
0700
0700
0E00
0E00
0000
ENDCHAR
STARTCHAR C213
ENCODING -1
SWIDTH 615 0
DWIDTH 8 0
BBX 12 13 -1 -2
BITMAP
0000
0000
0000
01C0
0380
0380
0380
0700
0700
0700
0E00
0E00
0000
ENDCHAR
STARTCHAR C214
ENCODING -1
SWIDTH 615 0
DWIDTH 8 0
BBX 12 13 -1 -2
BITMAP
0000
0000
0000
01C0
0380
0380
0380
0700
0700
0700
0E00
0E00
0000
ENDCHAR
STARTCHAR C215
ENCODING -1
SWIDTH 615 0
DWIDTH 8 0
BBX 12 13 -1 -2
BITMAP
0000
0000
0000
01C0
0380
0380
0380
0700
0700
0700
0E00
0E00
0000
ENDCHAR
STARTCHAR C216
ENCODING -1
SWIDTH 615 0
DWIDTH 8 0
BBX 12 13 -1 -2
BITMAP
0000
0000
0000
01C0
0380
0380
0380
0700
0700
0700
0E00
0E00
0000
ENDCHAR
STARTCHAR C217
ENCODING -1
SWIDTH 615 0
DWIDTH 8 0
BBX 12 13 -1 -2
BITMAP
0000
0000
0000
01C0
0380
0380
0380
0700
0700
0700
0E00
0E00
0000
ENDCHAR
STARTCHAR C220
ENCODING -1
SWIDTH 615 0
DWIDTH 8 0
BBX 12 13 -1 -2
BITMAP
0000
0000
0000
01C0
0380
0380
0380
0700
0700
0700
0E00
0E00
0000
ENDCHAR
STARTCHAR C221
ENCODING -1
SWIDTH 615 0
DWIDTH 8 0
BBX 12 13 -1 -2
BITMAP
0000
0000
0080
0100
0000
0000
0000
0000
0000
0000
0000
0000
0000
ENDCHAR
STARTCHAR C222
ENCODING -1
SWIDTH 615 0
DWIDTH 8 0
BBX 12 13 -1 -2
BITMAP
0000
0000
0080
0100
0000
0000
0000
0000
0000
0000
0000
0000
0000
ENDCHAR
STARTCHAR C223
ENCODING -1
SWIDTH 615 0
DWIDTH 8 0
BBX 12 13 -1 -2
BITMAP
0000
0000
0000
01C0
0380
0380
0380
0700
0700
0700
0E00
0E00
0000
ENDCHAR
STARTCHAR C224
ENCODING -1
SWIDTH 615 0
DWIDTH 8 0
BBX 12 13 -1 -2
BITMAP
0000
0000
0000
01C0
0380
0380
0380
0700
0700
0700
0E00
0E00
0000
ENDCHAR
STARTCHAR C225
ENCODING -1
SWIDTH 615 0
DWIDTH 8 0
BBX 12 13 -1 -2
BITMAP
0000
0000
0000
01C0
0380
0380
0380
0700
0700
0700
0E00
0E00
0000
ENDCHAR
STARTCHAR C226
ENCODING -1
SWIDTH 615 0
DWIDTH 8 0
BBX 12 13 -1 -2
BITMAP
0000
0000
0000
01C0
0380
0380
0380
0700
0700
0700
0E00
0E00
0000
ENDCHAR
STARTCHAR C227
ENCODING -1
SWIDTH 615 0
DWIDTH 8 0
BBX 12 13 -1 -2
BITMAP
0000
0000
0000
01C0
0380
0380
0380
0700
0700
0700
0E00
0E00
0000
ENDCHAR
STARTCHAR C230
ENCODING -1
SWIDTH 615 0
DWIDTH 8 0
BBX 12 13 -1 -2
BITMAP
0000
0000
0000
01C0
0380
0380
0380
0700
0700
0700
0E00
0E00
0000
ENDCHAR
STARTCHAR C231
ENCODING -1
SWIDTH 615 0
DWIDTH 8 0
BBX 12 13 -1 -2
BITMAP
0000
0000
0000
01C0
0380
0380
0380
0700
0700
0700
0E00
0E00
0000
ENDCHAR
STARTCHAR C232
ENCODING -1
SWIDTH 615 0
DWIDTH 8 0
BBX 12 13 -1 -2
BITMAP
0000
0000
0000
01C0
0380
0380
0380
0700
0700
0700
0E00
0E00
0000
ENDCHAR
STARTCHAR C233
ENCODING -1
SWIDTH 615 0
DWIDTH 8 0
BBX 12 13 -1 -2
BITMAP
0000
0000
0000
01C0
0380
0380
0380
0700
0700
0700
0E00
0E00
0000
ENDCHAR
STARTCHAR C234
ENCODING 176
SWIDTH 615 0
DWIDTH 8 0
BBX 12 13 -1 -2
BITMAP
0000
0000
0000
01C0
0380
0380
0380
0700
0700
0700
0E00
0E00
0000
ENDCHAR
STARTCHAR C235
ENCODING 178
SWIDTH 615 0
DWIDTH 8 0
BBX 12 13 -1 -2
BITMAP
0000
0000
0000
01C0
0380
0380
0380
0700
0700
0700
0E00
0E00
0000
ENDCHAR
STARTCHAR C236
ENCODING -1
SWIDTH 615 0
DWIDTH 8 0
BBX 12 13 -1 -2
BITMAP
0000
0000
0000
01C0
0380
0380
0380
0700
0700
0700
0E00
0E00
0000
ENDCHAR
STARTCHAR C237
ENCODING -1
SWIDTH 615 0
DWIDTH 8 0
BBX 12 13 -1 -2
BITMAP
0000
0000
0000
01C0
0380
0380
0380
0700
0700
0700
0E00
0E00
0000
ENDCHAR
STARTCHAR C240
ENCODING 160
SWIDTH 615 0
DWIDTH 8 0
BBX 12 13 -1 -2
BITMAP
0000
0000
0000
0000
0000
0000
0000
0000
0000
0000
0000
0000
0000
ENDCHAR
STARTCHAR exclamdown
ENCODING 161
SWIDTH 615 0
DWIDTH 8 0
BBX 12 13 -1 -2
BITMAP
01B0
0000
07F0
0210
0400
0480
0780
0900
0800
0840
3F80
0000
0000
ENDCHAR
STARTCHAR cent
ENCODING 162
SWIDTH 615 0
DWIDTH 8 0
BBX 12 13 -1 -2
BITMAP
0000
0000
0000
0000
0100
0380
0440
0800
0880
0700
0400
0000
0000
ENDCHAR
STARTCHAR sterling
ENCODING 163
SWIDTH 615 0
DWIDTH 8 0
BBX 12 13 -1 -2
BITMAP
0000
0000
0000
0180
0480
0400
0200
0F00
0400
0400
1F00
0000
0000
ENDCHAR
STARTCHAR currency
ENCODING 164
SWIDTH 615 0
DWIDTH 8 0
BBX 12 13 -1 -2
BITMAP
0000
0000
0410
03E0
0440
0440
0440
0F80
1040
0000
0000
0000
0000
ENDCHAR
STARTCHAR yen
ENCODING 165
SWIDTH 615 0
DWIDTH 8 0
BBX 12 13 -1 -2
BITMAP
0000
0000
0000
0770
0440
0FE0
0280
1FC0
0200
0200
0E00
0000
0000
ENDCHAR
STARTCHAR brokenbar
ENCODING 166
SWIDTH 615 0
DWIDTH 8 0
BBX 12 13 -1 -2
BITMAP
0000
0000
0080
0080
0100
0100
0100
0000
0200
0200
0400
0400
0400
ENDCHAR
STARTCHAR section
ENCODING 167
SWIDTH 615 0
DWIDTH 8 0
BBX 12 13 -1 -2
BITMAP
0000
0000
01E0
0220
0A00
0900
0480
0480
0280
1100
3C00
0000
0000
ENDCHAR
STARTCHAR dieresis
ENCODING 168
SWIDTH 615 0
DWIDTH 8 0
BBX 12 13 -1 -2
BITMAP
0000
0000
0220
0000
0000
0000
0000
0000
0000
0000
0000
0000
0000
ENDCHAR
STARTCHAR copyright
ENCODING 191
SWIDTH 615 0
DWIDTH 8 0
BBX 12 13 -1 -2
BITMAP
0000
0000
01C0
0220
09A0
0A20
0A20
1340
0880
0700
0000
0000
0000
ENDCHAR
STARTCHAR ordfeminine
ENCODING 170
SWIDTH 615 0
DWIDTH 8 0
BBX 12 13 -1 -2
BITMAP
0000
0000
0180
0040
0380
0480
0380
0000
0F00
0000
0000
0000
0000
ENDCHAR
STARTCHAR guillemotleft
ENCODING 171
SWIDTH 615 0
DWIDTH 8 0
BBX 12 13 -1 -2
BITMAP
0000
0000
0000
0000
0000
0000
0220
0880
1100
0880
0880
0000
0000
ENDCHAR
STARTCHAR logicalnot
ENCODING 172
SWIDTH 615 0
DWIDTH 8 0
BBX 12 13 -1 -2
BITMAP
0000
0000
0000
0000
0000
07C0
0040
0000
0000
0000
0000
0000
0000
ENDCHAR
STARTCHAR hyphen
ENCODING 173
SWIDTH 615 0
DWIDTH 8 0
BBX 12 13 -1 -2
BITMAP
0000
0000
0000
0000
0000
0000
0000
1FC0
0000
0000
0000
0000
0000
ENDCHAR
STARTCHAR registered
ENCODING 174
SWIDTH 615 0
DWIDTH 8 0
BBX 12 13 -1 -2
BITMAP
0000
0000
01C0
0220
0B20
0AA0
0B20
1540
0880
0700
0000
0000
0000
ENDCHAR
STARTCHAR macron
ENCODING 175
SWIDTH 615 0
DWIDTH 8 0
BBX 12 13 -1 -2
BITMAP
0000
0FF0
0000
0000
0000
0000
0000
0000
0000
0000
0000
0000
0000
ENDCHAR
STARTCHAR degree
ENCODING 156
SWIDTH 615 0
DWIDTH 8 0
BBX 12 13 -1 -2
BITMAP
0000
0000
0080
0140
0100
0000
0000
0000
0000
0000
0000
0000
0000
ENDCHAR
STARTCHAR plusminus
ENCODING 177
SWIDTH 615 0
DWIDTH 8 0
BBX 12 13 -1 -2
BITMAP
0000
0000
0080
0080
0100
0FE0
0100
0200
0200
0000
3F80
0000
0000
ENDCHAR
STARTCHAR twosuperior
ENCODING 157
SWIDTH 615 0
DWIDTH 8 0
BBX 12 13 -1 -2
BITMAP
0000
0000
0080
0140
0080
0100
0380
0000
0000
0000
0000
0000
0000
ENDCHAR
STARTCHAR threesuperior
ENCODING 179
SWIDTH 615 0
DWIDTH 8 0
BBX 12 13 -1 -2
BITMAP
0000
0000
0180
0040
0100
0080
0300
0000
0000
0000
0000
0000
0000
ENDCHAR
STARTCHAR acute
ENCODING 180
SWIDTH 615 0
DWIDTH 8 0
BBX 12 13 -1 -2
BITMAP
0000
0000
0040
0080
0000
0000
0000
0000
0000
0000
0000
0000
0000
ENDCHAR
STARTCHAR mu
ENCODING 181
SWIDTH 615 0
DWIDTH 8 0
BBX 12 13 -1 -2
BITMAP
0000
0000
0000
0000
0000
0440
0440
0880
0880
0880
1E00
1000
2000
ENDCHAR
STARTCHAR paragraph
ENCODING 182
SWIDTH 615 0
DWIDTH 8 0
BBX 12 13 -1 -2
BITMAP
0000
0000
03F0
07A0
0F40
0F40
0740
0280
0280
0280
0D80
0000
0000
ENDCHAR
STARTCHAR periodcentered
ENCODING 183
SWIDTH 615 0
DWIDTH 8 0
BBX 12 13 -1 -2
BITMAP
0000
0000
0000
0000
0000
0000
0000
0200
0000
0000
0000
0000
0000
ENDCHAR
STARTCHAR cedilla
ENCODING 184
SWIDTH 615 0
DWIDTH 8 0
BBX 12 13 -1 -2
BITMAP
0000
0000
0000
0000
0000
0000
0000
0000
0000
0000
0400
0200
0C00
ENDCHAR
STARTCHAR onesuperior
ENCODING 185
SWIDTH 615 0
DWIDTH 8 0
BBX 12 13 -1 -2
BITMAP
0000
0000
0180
0080
0100
0100
0380
0000
0000
0000
0000
0000
0000
ENDCHAR
STARTCHAR ordmasculine
ENCODING 186
SWIDTH 615 0
DWIDTH 8 0
BBX 12 13 -1 -2
BITMAP
0000
0000
0180
0240
0480
0480
0300
0000
0F00
0000
0000
0000
0000
ENDCHAR
STARTCHAR guillemotright
ENCODING 187
SWIDTH 615 0
DWIDTH 8 0
BBX 12 13 -1 -2
BITMAP
0000
0000
0000
0000
0000
0000
0880
0880
0440
0880
2200
0000
0000
ENDCHAR
STARTCHAR onequarter
ENCODING 188
SWIDTH 615 0
DWIDTH 8 0
BBX 12 13 -1 -2
BITMAP
0000
0000
0600
0210
0440
0480
0F20
04C0
0940
13C0
0080
0000
0000
ENDCHAR
STARTCHAR onehalf
ENCODING 189
SWIDTH 615 0
DWIDTH 8 0
BBX 12 13 -1 -2
BITMAP
0000
0000
0600
0210
0440
0480
0F40
0540
0840
1080
0380
0000
0000
ENDCHAR
STARTCHAR threequarters
ENCODING 190
SWIDTH 615 0
DWIDTH 8 0
BBX 12 13 -1 -2
BITMAP
0000
0000
0600
0110
0440
0280
0D20
04C0
0940
13C0
0080
0000
0000
ENDCHAR
STARTCHAR questiondown
ENCODING 169
SWIDTH 615 0
DWIDTH 8 0
BBX 12 13 -1 -2
BITMAP
0000
0000
0000
0360
0000
07C0
0820
1FC0
1000
1040
1F00
0000
0000
ENDCHAR
STARTCHAR cyr-A
ENCODING 225
SWIDTH 615 0
DWIDTH 8 0
BBX 12 13 -1 -2
BITMAP
0000
0000
0080
0080
0100
0280
0280
0880
0F80
0880
3B80
0000
0000
ENDCHAR
STARTCHAR cyr-Be
ENCODING 226
SWIDTH 615 0
DWIDTH 8 0
BBX 12 13 -1 -2
BITMAP
0000
0000
07F0
0210
0400
0400
07C0
0840
0840
0840
3F00
0000
0000
ENDCHAR
STARTCHAR cyr-Ve
ENCODING 247
SWIDTH 615 0
DWIDTH 8 0
BBX 12 13 -1 -2
BITMAP
0000
0000
07E0
0210
0420
0420
07C0
0840
0840
0840
3F00
0000
0000
ENDCHAR
STARTCHAR cyr-Ghe
ENCODING 231
SWIDTH 615 0
DWIDTH 8 0
BBX 12 13 -1 -2
BITMAP
0000
0000
07F0
0210
0400
0400
0400
0800
0800
0800
3C00
0000
0000
ENDCHAR
STARTCHAR cyr-De
ENCODING 228
SWIDTH 615 0
DWIDTH 8 0
BBX 12 13 -1 -2
BITMAP
0000
0000
03F0
0120
0240
0240
0240
0480
0480
0880
3F80
2080
0000
ENDCHAR
STARTCHAR cyr-Ie
ENCODING 229
SWIDTH 615 0
DWIDTH 8 0
BBX 12 13 -1 -2
BITMAP
0000
0000
07F0
0210
0400
0480
0780
0900
0800
0840
3F80
0000
0000
ENDCHAR
STARTCHAR cyr-Zhe
ENCODING 246
SWIDTH 615 0
DWIDTH 8 0
BBX 12 13 -1 -2
BITMAP
0000
0000
06B0
02A0
0540
0540
0380
0A80
0A80
0A80
3580
0000
0000
ENDCHAR
STARTCHAR cyr-Ze
ENCODING 250
SWIDTH 615 0
DWIDTH 8 0
BBX 12 13 -1 -2
BITMAP
0000
0000
05C0
0620
0840
0040
0380
0080
1080
1080
1E00
0000
0000
ENDCHAR
STARTCHAR cyr-I
ENCODING 233
SWIDTH 615 0
DWIDTH 8 0
BBX 12 13 -1 -2
BITMAP
0000
0000
0770
0220
0440
04C0
0540
0A80
0C80
0880
3B80
0000
0000
ENDCHAR
STARTCHAR cyr-I-short
ENCODING 234
SWIDTH 615 0
DWIDTH 8 0
BBX 12 13 -1 -2
BITMAP
00A0
0080
0770
0220
0440
04C0
0540
0A80
0C80
0880
3B80
0000
0000
ENDCHAR
STARTCHAR cyr-Ka
ENCODING 235
SWIDTH 615 0
DWIDTH 8 0
BBX 12 13 -1 -2
BITMAP
0000
0000
0730
0220
0480
0480
0500
0E00
0900
0880
3980
0000
0000
ENDCHAR
STARTCHAR cyr-El
ENCODING 236
SWIDTH 615 0
DWIDTH 8 0
BBX 12 13 -1 -2
BITMAP
0000
0000
03F0
0120
0240
0240
0240
0480
0480
0480
3380
0000
0000
ENDCHAR
STARTCHAR cyr-Em
ENCODING 237
SWIDTH 615 0
DWIDTH 8 0
BBX 12 13 -1 -2
BITMAP
0000
0000
0630
0220
06C0
06C0
0540
0A80
0880
0880
3B80
0000
0000
ENDCHAR
STARTCHAR cyr-En
ENCODING 238
SWIDTH 615 0
DWIDTH 8 0
BBX 12 13 -1 -2
BITMAP
0000
0000
0770
0220
0440
0440
07C0
0880
0880
0880
3B80
0000
0000
ENDCHAR
STARTCHAR cyr-O
ENCODING 239
SWIDTH 615 0
DWIDTH 8 0
BBX 12 13 -1 -2
BITMAP
0000
0000
01C0
0220
0820
0820
0820
1040
1040
0880
0E00
0000
0000
ENDCHAR
STARTCHAR cyr-Pe
ENCODING 240
SWIDTH 615 0
DWIDTH 8 0
BBX 12 13 -1 -2
BITMAP
0000
0000
07F0
0220
0440
0440
0440
0880
0880
0880
3B80
0000
0000
ENDCHAR
STARTCHAR cyr-Er
ENCODING 242
SWIDTH 615 0
DWIDTH 8 0
BBX 12 13 -1 -2
BITMAP
0000
0000
07E0
0210
0420
0420
07C0
0800
0800
0800
3800
0000
0000
ENDCHAR
STARTCHAR cyr-Es
ENCODING 243
SWIDTH 615 0
DWIDTH 8 0
BBX 12 13 -1 -2
BITMAP
0000
0000
01D0
0230
0820
0800
0800
1000
1040
0840
0F00
0000
0000
ENDCHAR
STARTCHAR cyr-Te
ENCODING 244
SWIDTH 615 0
DWIDTH 8 0
BBX 12 13 -1 -2
BITMAP
0000
0000
07F0
0490
0100
0100
0100
0200
0200
0200
0E00
0000
0000
ENDCHAR
STARTCHAR cyr-U
ENCODING 245
SWIDTH 615 0
DWIDTH 8 0
BBX 12 13 -1 -2
BITMAP
0000
0000
0770
0220
0440
0280
0280
0200
0200
1200
1800
0000
0000
ENDCHAR
STARTCHAR cyr-Ef
ENCODING 230
SWIDTH 615 0
DWIDTH 8 0
BBX 12 13 -1 -2
BITMAP
0000
0080
01C0
02A0
0920
0920
0920
1240
0A80
0700
0400
0000
0000
ENDCHAR
STARTCHAR cyr-Kha
ENCODING 232
SWIDTH 615 0
DWIDTH 8 0
BBX 12 13 -1 -2
BITMAP
0000
0000
0770
0220
0280
0280
0100
0500
0500
0880
3B80
0000
0000
ENDCHAR
STARTCHAR cyr-Tse
ENCODING 227
SWIDTH 615 0
DWIDTH 8 0
BBX 12 13 -1 -2
BITMAP
0000
0000
0770
0220
0440
0440
0440
0880
0880
0880
3F80
0080
0000
ENDCHAR
STARTCHAR cyr-Che
ENCODING 254
SWIDTH 615 0
DWIDTH 8 0
BBX 12 13 -1 -2
BITMAP
0000
0000
0770
0220
0440
0440
04C0
0680
0080
0080
0380
0000
0000
ENDCHAR
STARTCHAR cyr-Sha
ENCODING 251
SWIDTH 615 0
DWIDTH 8 0
BBX 12 13 -1 -2
BITMAP
0000
0000
06B0
02A0
0540
0540
0540
0A80
0A80
0A80
3F80
0000
0000
ENDCHAR
STARTCHAR cyr-Shcha
ENCODING 253
SWIDTH 615 0
DWIDTH 8 0
BBX 12 13 -1 -2
BITMAP
0000
0000
06B0
02A0
0540
0540
0540
0A80
0A80
0A80
3F80
0080
0000
ENDCHAR
STARTCHAR cyr-Ier
ENCODING 255
SWIDTH 615 0
DWIDTH 8 0
BBX 12 13 -1 -2
BITMAP
0000
0000
0780
0500
0A00
0200
03C0
0440
0440
0440
1F00
0000
0000
ENDCHAR
STARTCHAR cyr-Iery
ENCODING 249
SWIDTH 615 0
DWIDTH 8 0
BBX 12 13 -1 -2
BITMAP
0000
0000
0E70
0420
0840
0840
0E40
1280
1280
1280
7B80
0000
0000
ENDCHAR
STARTCHAR cyr-Ierik
ENCODING 248
SWIDTH 615 0
DWIDTH 8 0
BBX 12 13 -1 -2
BITMAP
0000
0000
0700
0200
0400
0400
07C0
0840
0840
0840
3F00
0000
0000
ENDCHAR
STARTCHAR cyr-E-rev
ENCODING 252
SWIDTH 615 0
DWIDTH 8 0
BBX 12 13 -1 -2
BITMAP
0000
0000
0380
0440
0040
0040
07C0
0080
0080
1100
1C00
0000
0000
ENDCHAR
STARTCHAR cyr-Yu
ENCODING 224
SWIDTH 615 0
DWIDTH 8 0
BBX 12 13 -1 -2
BITMAP
0000
0000
0EE0
0510
0A20
0A20
0E20
1440
1440
1440
7700
0000
0000
ENDCHAR
STARTCHAR cyr-Ya
ENCODING 241
SWIDTH 615 0
DWIDTH 8 0
BBX 12 13 -1 -2
BITMAP
0000
0000
03F0
0420
0840
0840
07C0
0480
0480
0880
3380
0000
0000
ENDCHAR
STARTCHAR cyr-a
ENCODING 193
SWIDTH 615 0
DWIDTH 8 0
BBX 12 13 -1 -2
BITMAP
0000
0000
0000
0000
0000
0780
0040
0F80
1080
1080
1E80
0000
0000
ENDCHAR
STARTCHAR cyr-be
ENCODING 194
SWIDTH 615 0
DWIDTH 8 0
BBX 12 13 -1 -2
BITMAP
0000
0000
0010
01E0
0400
07C0
0420
0840
0840
0840
0F00
0000
0000
ENDCHAR
STARTCHAR cyr-ve
ENCODING 215
SWIDTH 615 0
DWIDTH 8 0
BBX 12 13 -1 -2
BITMAP
0000
0000
0000
0000
0000
0FC0
0420
0F80
0840
0840
3F00
0000
0000
ENDCHAR
STARTCHAR cyr-ghe
ENCODING 199
SWIDTH 615 0
DWIDTH 8 0
BBX 12 13 -1 -2
BITMAP
0000
0000
0000
0000
0000
0FC0
0440
0800
0800
0800
3800
0000
0000
ENDCHAR
STARTCHAR cyr-de
ENCODING 196
SWIDTH 615 0
DWIDTH 8 0
BBX 12 13 -1 -2
BITMAP
0000
0000
0000
0000
0000
07E0
0240
0480
0480
0880
3F80
2080
0000
ENDCHAR
STARTCHAR cyr-ie
ENCODING 197
SWIDTH 615 0
DWIDTH 8 0
BBX 12 13 -1 -2
BITMAP
0000
0000
0000
0000
0000
07C0
0820
1FC0
1000
1040
1F00
0000
0000
ENDCHAR
STARTCHAR cyr-zhe
ENCODING 214
SWIDTH 615 0
DWIDTH 8 0
BBX 12 13 -1 -2
BITMAP
0000
0000
0000
0000
0000
0D60
0540
0700
0A80
0A80
3580
0000
0000
ENDCHAR
STARTCHAR cyr-z
ENCODING 218
SWIDTH 615 0
DWIDTH 8 0
BBX 12 13 -1 -2
BITMAP
0000
0000
0000
0000
0000
0FC0
0820
0380
0040
1040
1F00
0000
0000
ENDCHAR
STARTCHAR cyr-i
ENCODING 201
SWIDTH 615 0
DWIDTH 8 0
BBX 12 13 -1 -2
BITMAP
0000
0000
0000
0000
0000
0EE0
0440
0980
0A80
0C80
3B80
0000
0000
ENDCHAR
STARTCHAR cyr-i-short
ENCODING 202
SWIDTH 615 0
DWIDTH 8 0
BBX 12 13 -1 -2
BITMAP
0000
0000
0000
01C0
0000
0EE0
0440
0980
0A80
0C80
3B80
0000
0000
ENDCHAR
STARTCHAR cyr-ka
ENCODING 203
SWIDTH 615 0
DWIDTH 8 0
BBX 12 13 -1 -2
BITMAP
0000
0000
0000
0000
0000
0EC0
0480
0A00
0E00
0900
3980
0000
0000
ENDCHAR
STARTCHAR cyr-el
ENCODING 204
SWIDTH 615 0
DWIDTH 8 0
BBX 12 13 -1 -2
BITMAP
0000
0000
0000
0000
0000
07E0
0240
0480
0480
0480
3380
0000
0000
ENDCHAR
STARTCHAR cyr-em
ENCODING 205
SWIDTH 615 0
DWIDTH 8 0
BBX 12 13 -1 -2
BITMAP
0000
0000
0000
0000
0000
0C60
06C0
0A80
0A80
0880
3B80
0000
0000
ENDCHAR
STARTCHAR cyr-en
ENCODING 206
SWIDTH 615 0
DWIDTH 8 0
BBX 12 13 -1 -2
BITMAP
0000
0000
0000
0000
0000
0EE0
0440
0F80
0880
0880
3B80
0000
0000
ENDCHAR
STARTCHAR cyr-o
ENCODING 207
SWIDTH 615 0
DWIDTH 8 0
BBX 12 13 -1 -2
BITMAP
0000
0000
0000
0000
0000
07C0
0820
1040
1040
1040
1F00
0000
0000
ENDCHAR
STARTCHAR cyr-pe
ENCODING 208
SWIDTH 615 0
DWIDTH 8 0
BBX 12 13 -1 -2
BITMAP
0000
0000
0000
0000
0000
0FE0
0440
0880
0880
0880
3B80
0000
0000
ENDCHAR
STARTCHAR cyr-er
ENCODING 210
SWIDTH 615 0
DWIDTH 8 0
BBX 12 13 -1 -2
BITMAP
0000
0000
0000
0000
0000
0FC0
0420
0840
0840
0840
1F00
1000
3800
ENDCHAR
STARTCHAR cyr-es
ENCODING 211
SWIDTH 615 0
DWIDTH 8 0
BBX 12 13 -1 -2
BITMAP
0000
0000
0000
0000
0000
07C0
0820
1000
1000
1040
1F00
0000
0000
ENDCHAR
STARTCHAR cyr-te
ENCODING 212
SWIDTH 615 0
DWIDTH 8 0
BBX 12 13 -1 -2
BITMAP
0000
0000
0000
0000
0000
0FE0
0920
0200
0200
0200
0E00
0000
0000
ENDCHAR
STARTCHAR cyr-u
ENCODING 213
SWIDTH 615 0
DWIDTH 8 0
BBX 12 13 -1 -2
BITMAP
0000
0000
0000
0000
0000
0EE0
0440
0880
0500
0500
0400
2400
1800
ENDCHAR
STARTCHAR cyr-ef
ENCODING 198
SWIDTH 615 0
DWIDTH 8 0
BBX 12 13 -1 -2
BITMAP
0000
0000
0000
01C0
0100
07C0
0920
1240
1240
1240
1F00
0400
0E00
ENDCHAR
STARTCHAR cyr-kha
ENCODING 200
SWIDTH 615 0
DWIDTH 8 0
BBX 12 13 -1 -2
BITMAP
0000
0000
0000
0000
0000
0EE0
0440
0700
0880
0880
3B80
0000
0000
ENDCHAR
STARTCHAR cyr-tse
ENCODING 195
SWIDTH 615 0
DWIDTH 8 0
BBX 12 13 -1 -2
BITMAP
0000
0000
0000
0000
0000
0EE0
0440
0880
0880
0880
3F80
0080
0000
ENDCHAR
STARTCHAR cyr-che
ENCODING 222
SWIDTH 615 0
DWIDTH 8 0
BBX 12 13 -1 -2
BITMAP
0000
0000
0000
0000
0000
0EE0
0440
0980
0680
0080
0380
0000
0000
ENDCHAR
STARTCHAR cyr-sha
ENCODING 219
SWIDTH 615 0
DWIDTH 8 0
BBX 12 13 -1 -2
BITMAP
0000
0000
0000
0000
0000
0D60
0540
0A80
0A80
0A80
3F80
0000
0000
ENDCHAR
STARTCHAR cyr-shcha
ENCODING 221
SWIDTH 615 0
DWIDTH 8 0
BBX 12 13 -1 -2
BITMAP
0000
0000
0000
0000
0000
0D60
0540
0A80
0A80
0A80
3F80
0080
0000
ENDCHAR
STARTCHAR cyr-ier
ENCODING 223
SWIDTH 615 0
DWIDTH 8 0
BBX 12 13 -1 -2
BITMAP
0000
0000
0000
0000
0000
0F00
0A00
0780
0440
0440
1F00
0000
0000
ENDCHAR
STARTCHAR cyr-iery
ENCODING 217
SWIDTH 615 0
DWIDTH 8 0
BBX 12 13 -1 -2
BITMAP
0000
0000
0000
0000
0000
1CE0
0840
1C80
1280
1280
7B80
0000
0000
ENDCHAR
STARTCHAR cyr-ierik
ENCODING 216
SWIDTH 615 0
DWIDTH 8 0
BBX 12 13 -1 -2
BITMAP
0000
0000
0000
0000
0000
0E00
0400
0F00
0880
0880
3E00
0000
0000
ENDCHAR
STARTCHAR cyr-e-rev
ENCODING 220
SWIDTH 615 0
DWIDTH 8 0
BBX 12 13 -1 -2
BITMAP
0000
0000
0000
0000
0000
07C0
0820
03C0
0040
1040
1F00
0000
0000
ENDCHAR
STARTCHAR cyr-yu
ENCODING 192
SWIDTH 615 0
DWIDTH 8 0
BBX 12 13 -1 -2
BITMAP
0000
0000
0000
0000
0000
1DC0
0A20
1C40
1440
1440
7700
0000
0000
ENDCHAR
STARTCHAR cyr-ya
ENCODING 209
SWIDTH 615 0
DWIDTH 8 0
BBX 12 13 -1 -2
BITMAP
0000
0000
0000
0000
0000
03E0
0440
0880
0780
0480
3380
0000
0000
ENDCHAR
ENDFONT
